# xmcd
#
# Track frame offsets:
#	187
#	17602
#	35357
#	49740
#	64911
#	82473
#	98908
#	119806
#	137458
#	157019
#	172166
#	187968
#
# Disc length: 2808 seconds
# Revision: 0
# Processed by: cddbd v1.5.2PL0 Copyright (c) Steve Scherf et al.
# Submitted via: dBpowerAMP V12.0
#
DISCID=aa0af60c
DTITLE=Vivien Searcy - Live It Right
DYEAR=2014
DGENRE=
TTITLE0=Live It Right
TTITLE1=Can't Be Bothered
TTITLE2=Someone Like You
TTITLE3=Saturday Night
TTITLE4=Day By Day
TTITLE5=Save Me
TTITLE6=Smile
TTITLE7=Fairytales
TTITLE8=Back To You
TTITLE9=Let It Out
TTITLE10=Trouble
TTITLE11=I Can Outrun You
EXTD=
EXTT0=
EXTT1=
EXTT2=
EXTT3=
EXTT4=
EXTT5=
EXTT6=
EXTT7=
EXTT8=
EXTT9=
EXTT10=
EXTT11=
PLAYORDER=
